Coordinates
version=1
nRows=14
nColumns=46
inDegrees=yes

Units are S.I. units (second, meters, Newtons, ...)
Angles are in degrees.

endheader
time	pelvis_tilt	pelvis_list	pelvis_rotation	pelvis_tx	pelvis_ty	pelvis_tz	bb_angle	bb_tx	bb_ty	bb_tz	hip_flexion_r	hip_adduction_r	hip_rotation_r	knee_angle_r	knee_angle_r_beta	ankle_angle_r	subtalar_angle_r	mtp_angle_r	crank_angle_r	hip_flexion_l	hip_adduction_l	hip_rotation_l	knee_angle_l	knee_angle_l_beta	ankle_angle_l	subtalar_angle_l	mtp_angle_l	crank_angle_l	lumbar_extension	lumbar_bending	lumbar_rotation	arm_flex_r	arm_add_r	arm_rot_r	elbow_flex_r	pro_sup_r	wrist_flex_r	wrist_dev_r	arm_flex_l	arm_add_l	arm_rot_l	elbow_flex_l	pro_sup_l	wrist_flex_l	wrist_dev_l
      2.50500000	    -28.03331718	     -5.39719765	      0.62923501	      0.37286788	      1.17762088	     -0.27954030	      0.00000000	      0.50000000	      0.00000000	      0.25000000	     55.80187722	     -5.90841079	     -6.58751500	     85.72523985	      1.49618769	     -0.80958953	     -3.37932691	      0.00000000	      0.00000000	     56.76587677	     -7.11145860	      4.41833134	     48.28339117	      0.84270415	      3.81334387	     -4.30739680	      0.00000000	      0.00000000	    -56.09104650	      6.41855494	    -12.20634993	     55.95486165	     -4.27368576	     31.64153560	     69.64353368	     48.05621684	      0.00000000	      0.00000000	     25.37665450	    -29.28137490	     -2.26713951	    100.93565898	     52.85193392	      0.00000000	      0.00000000
      2.51000000	    -27.75783292	     -5.89820264	      0.20902777	      0.37379229	      1.17612086	     -0.27948100	      0.00000000	      0.50000000	      0.00000000	      0.25000000	     56.53855412	     -5.55068597	     -6.65789585	     87.51102228	      1.52735547	     -0.20478894	     -2.81175267	      0.00000000	      0.00000000	     55.56652625	     -8.08212841	      3.96243333	     47.03488958	      0.82091369	      3.37290490	     -3.47258732	      0.00000000	      0.00000000	    -56.19719618	      6.65710437	    -11.79622384	     56.16500519	     -4.31754455	     32.53426486	     69.35501055	     48.10009723	      0.00000000	      0.00000000	     24.79532041	    -29.59632563	     -2.40563591	    100.93033791	     52.83735944	      0.00000000	      0.00000000
      2.51500000	    -27.53033455	     -6.46265862	     -0.15096469	      0.37472091	      1.17472755	     -0.27959122	      0.00000000	      0.50000000	      0.00000000	      0.25000000	     57.28749570	     -5.21251653	     -6.84672951	     89.19513834	      1.55674884	      0.32818162	     -2.42375700	      0.00000000	      0.00000000	     54.40394451	     -9.01806489	      3.60340435	     45.76226566	      0.79870221	      2.74838172	     -2.73948167	      0.00000000	      0.00000000	    -56.26918631	      6.97956080	    -11.23911454	     56.26507523	     -4.40638425	     33.05823135	     69.22582453	     48.13448502	      0.00000000	      0.00000000	     24.21056317	    -29.74233377	     -2.80924738	    100.81895154	     52.78260241	      0.00000000	      0.00000000
      2.52000000	    -27.34876996	     -7.05427244	     -0.49609522	      0.37558442	      1.17336009	     -0.27971291	      0.00000000	      0.50000000	      0.00000000	      0.25000000	     58.11728362	     -4.86309395	     -7.07413123	     90.83691748	      1.58540329	      0.67528630	     -2.20813841	      0.00000000	      0.00000000	     53.28658106	     -9.95526012	      3.25640369	     44.50262059	      0.77671726	      2.05520291	     -2.04230954	      0.00000000	      0.00000000	    -56.30911636	      7.33827091	    -10.59189384	     56.26967739	     -4.48654558	     33.30611298	     69.15529187	     48.14664719	      0.00000000	      0.00000000	     23.74557311	    -29.88231652	     -3.04953659	    100.68062111	     52.73341124	      0.00000000	      0.00000000
      2.52500000	    -27.19674519	     -7.63068285	     -0.77885921	      0.37635597	      1.17196407	     -0.28003108	      0.00000000	      0.50000000	      0.00000000	      0.25000000	     59.00303784	     -4.58887971	     -7.31896523	     92.45513669	      1.61364655	      0.96135427	     -2.04265982	      0.00000000	      0.00000000	     52.17566094	    -10.78571318	      2.98647435	     43.23577196	      0.75460658	      1.45547806	     -1.46207906	      0.00000000	      0.00000000	    -56.30064232	      7.81700000	     -9.94392885	     56.27160528	     -4.45481073	     33.50787104	     69.12408458	     48.15910903	      0.00000000	      0.00000000	     23.36518435	    -29.98252614	     -3.12007856	    100.56835438	     52.70476219	      0.00000000	      0.00000000
      2.53000000	    -26.79462130	     -7.99809275	     -1.44048915	      0.37773479	      1.17137585	     -0.27956398	      0.00000000	      0.50000000	      0.00000000	      0.25000000	     59.63399485	     -4.06509447	     -7.16706869	     93.97779761	      1.64022199	      1.48537393	     -1.39993250	      0.00000000	      0.00000000	     50.57569696	    -11.97648893	      1.84034183	     41.89859880	      0.73126850	      1.09906332	     -0.08972064	      0.00000000	      0.00000000	    -56.62108358	      7.68384558	     -9.51631622	     56.51943055	     -4.68209061	     34.53831083	     68.95876806	     48.23596477	      0.00000000	      0.00000000	     22.73068548	    -30.43846950	     -3.18542067	    100.36864433	     52.66712670	      0.00000000	      0.00000000
      2.53500000	    -26.52326825	     -8.49907331	     -1.89676037	      0.37885982	      1.17066848	     -0.27964249	      0.00000000	      0.50000000	      0.00000000	      0.25000000	     60.37136607	     -3.66010174	     -7.27596875	     95.41197492	      1.66525311	      1.78005819	     -1.14450737	      0.00000000	      0.00000000	     49.15989343	    -12.98594509	      1.04786384	     40.54825288	      0.70770052	      0.61627331	      0.96144736	      0.00000000	      0.00000000	    -56.78382474	      7.93289617	     -9.10098799	     56.99297528	     -4.88765889	     35.91119665	     68.57801650	     48.31283727	      0.00000000	      0.00000000	     22.15002976	    -31.02392861	     -3.16668101	    100.28406458	     52.66495114	      0.00000000	      0.00000000
      2.54000000	    -26.41593216	     -9.06190013	     -2.26731532	      0.37971728	      1.16982150	     -0.27996275	      0.00000000	      0.50000000	      0.00000000	      0.25000000	     61.28558798	     -3.28013100	     -7.47270435	     96.78793226	      1.68926809	      1.96264845	     -0.96233722	      0.00000000	      0.00000000	     47.95091899	    -13.84598853	      0.63638949	     39.21817727	      0.68448632	     -0.16976144	      1.56935804	      0.00000000	      0.00000000	    -56.78339356	      8.32066236	     -8.45212879	     57.04073425	     -4.94777091	     36.17382929	     68.46096592	     48.31542237	      0.00000000	      0.00000000	     21.58983059	    -31.19442152	     -3.15157894	    100.04592865	     52.62422407	      0.00000000	      0.00000000
      2.54500000	    -26.14542725	     -9.40696003	     -2.85320934	      0.38087158	      1.16956199	     -0.27992386	      0.00000000	      0.50000000	      0.00000000	      0.25000000	     62.03388035	     -2.79261362	     -7.37005770	     98.08400317	      1.71188880	      2.32623887	     -0.75416057	      0.00000000	      0.00000000	     46.37551303	    -14.80556345	     -0.46980480	     37.80350215	      0.65979558	     -0.72869042	      2.66175915	      0.00000000	      0.00000000	    -56.96535566	      8.33343476	     -8.01873619	     57.41271335	     -5.05756707	     37.16385342	     68.08650812	     48.35006666	      0.00000000	      0.00000000	     21.25265276	    -31.72118995	     -2.86340152	     99.82045056	     52.61280243	      0.00000000	      0.00000000
      2.55000000	    -26.03939103	     -9.82162912	     -3.36541313	      0.38182165	      1.16915189	     -0.28004014	      0.00000000	      0.50000000	      0.00000000	      0.25000000	     62.95655224	     -2.36902303	     -7.43434683	     99.32217377	      1.73349895	      2.79754789	     -0.61759280	      0.00000000	      0.00000000	     45.02652398	    -15.68915246	     -1.37891418	     36.44818637	      0.63614086	     -1.36921558	      3.55936053	      0.00000000	      0.00000000	    -57.00822136	      8.51034038	     -7.47597070	     57.70020568	     -5.18037281	     37.91700080	     67.80137343	     48.37775352	      0.00000000	      0.00000000	     20.86672974	    -32.10681900	     -2.69715393	     99.48958248	     52.57555836	      0.00000000	      0.00000000
      2.55500000	    -26.14942113	    -10.33095648	     -3.69738716	      0.38252236	      1.16863141	     -0.28071848	      0.00000000	      0.50000000	      0.00000000	      0.25000000	     64.04481479	     -2.02850110	     -7.65406042	    100.43072549	      1.75284683	      2.94890476	     -0.58220293	      0.00000000	      0.00000000	     43.96046783	    -16.36187490	     -1.78079877	     35.06366054	      0.61197632	     -2.18464194	      4.09464664	      0.00000000	      0.00000000	    -56.89288269	      8.96766662	     -6.90037169	     57.82492307	     -5.20510792	     38.09234319	     67.74268931	     48.38141754	      0.00000000	      0.00000000	     20.52531791	    -32.26843092	     -2.63819124	     99.28169430	     52.54348214	      0.00000000	      0.00000000
      2.56000000	    -26.15005711	    -10.64981307	     -4.27492304	      0.38338366	      1.16868443	     -0.28075424	      0.00000000	      0.50000000	      0.00000000	      0.25000000	     65.05660823	     -1.52673728	     -7.60670735	    101.45129936	      1.77065920	      3.07904208	     -0.60071418	      0.00000000	      0.00000000	     42.62102267	    -17.13477547	     -2.80953161	     33.63439604	      0.58703095	     -3.11490447	      4.80308082	      0.00000000	      0.00000000	    -56.92738961	      9.06238053	     -6.32700814	     57.95547631	     -5.29403319	     38.55710888	     67.52081320	     48.39039226	      0.00000000	      0.00000000	     20.23665037	    -32.48083280	     -2.48738280	     98.88496661	     52.49078331	      0.00000000	      0.00000000
      2.56500000	    -26.00799176	    -10.76991647	     -5.00484167	      0.38443366	      1.16927613	     -0.28044473	      0.00000000	      0.50000000	      0.00000000	      0.25000000	     65.90181538	     -0.95123394	     -7.37252437	    102.38583775	      1.78696998	      3.29917758	     -0.63145839	      0.00000000	      0.00000000	     40.95692671	    -17.83998021	     -4.23687883	     32.13146767	      0.56079990	     -3.96742927	      5.67019434	      0.00000000	      0.00000000	    -57.01518167	      8.80622053	     -5.85987855	     58.29695266	     -5.47445669	     39.45615309	     67.11993625	     48.41650373	      0.00000000	      0.00000000	     20.32836315	    -32.69771981	     -2.11865481	     98.20642898	     52.41283649	      0.00000000	      0.00000000
      2.57000000	    -26.18045396	    -11.13360149	     -5.25976712	      0.38486719	      1.16938993	     -0.28116932	      0.00000000	      0.50000000	      0.00000000	      0.25000000	     67.00370575	     -0.70639068	     -7.56071932	    103.23037114	      1.80170986	      3.62658478	     -0.69560115	      0.00000000	      0.00000000	     39.97867372	    -18.27142078	     -4.67425564	     30.85468547	      0.53851585	     -4.87054372	      6.12856402	      0.00000000	      0.00000000	    -56.91828303	      9.26348504	     -5.37950624	     58.51170953	     -5.48305114	     39.60686868	     67.06507660	     48.42218501	      0.00000000	      0.00000000	     20.24020757	    -32.74864416	     -2.03237487	     97.99629260	     52.39033736	      0.00000000	      0.00000000
